<svg width="169" height="104" viewBox="0 0 169 104" fill="none" xmlns="http://www.w3.org/2000/svg">
<path d="M2.95814 93V67.5455H18.9169V70.8516H6.7987V78.6072H18.0842V81.9009H6.7987V89.6939H19.0661V93H2.95814ZM40.0804 73.9091L33.1574 93H29.1802L22.2448 73.9091H26.2345L31.0694 88.6001H31.2682L36.0907 73.9091H40.0804ZM51.1515 93.3853C49.2706 93.3853 47.6507 92.9834 46.2918 92.1797C44.9412 91.3677 43.8971 90.2283 43.1597 88.7617C42.4305 87.2868 42.0659 85.5592 42.0659 83.5788C42.0659 81.6233 42.4305 79.8999 43.1597 78.4084C43.8971 76.9169 44.9246 75.7527 46.2421 74.9158C47.5678 74.079 49.1173 73.6605 50.8905 73.6605C51.9677 73.6605 53.0117 73.8387 54.0226 74.195C55.0335 74.5513 55.9408 75.1106 56.7445 75.8729C57.5483 76.6352 58.1822 77.6254 58.6462 78.8434C59.1102 80.0531 59.3422 81.5239 59.3422 83.2557V84.5732H44.1664V81.7891H55.7005C55.7005 80.8113 55.5016 79.9454 55.1039 79.1914C54.7062 78.4291 54.1469 77.8284 53.426 77.3892C52.7134 76.95 51.8765 76.7305 50.9153 76.7305C49.8713 76.7305 48.9599 76.9873 48.181 77.5011C47.4104 78.0065 46.8138 78.6694 46.3912 79.4897C45.9769 80.3017 45.7698 81.1842 45.7698 82.1371V84.3121C45.7698 85.5882 45.9935 86.6737 46.4409 87.5685C46.8966 88.4634 47.5305 89.147 48.3426 89.6193C49.1546 90.0833 50.1033 90.3153 51.1888 90.3153C51.8931 90.3153 52.5353 90.2159 53.1153 90.017C53.6953 89.8099 54.1966 89.5033 54.6192 89.0973C55.0418 88.6913 55.3649 88.19 55.5886 87.5934L59.106 88.2273C58.8243 89.263 58.3189 90.1703 57.5897 90.9492C56.8688 91.7198 55.9615 92.3205 54.8678 92.7514C53.7823 93.174 52.5435 93.3853 51.1515 93.3853ZM67.1818 81.6648V93H63.4655V73.9091H67.0326V77.0163H67.2688C67.7079 76.0054 68.3957 75.1934 69.332 74.5803C70.2766 73.9671 71.4656 73.6605 72.8991 73.6605C74.2 73.6605 75.3393 73.9339 76.3171 74.4808C77.2948 75.0194 78.053 75.8232 78.5916 76.892C79.1302 77.9609 79.3995 79.2826 79.3995 80.8569V93H75.6832V81.3043C75.6832 79.9206 75.3228 78.8393 74.6019 78.0604C73.881 77.2732 72.8908 76.8796 71.6313 76.8796C70.7696 76.8796 70.0032 77.0661 69.332 77.4389C68.6691 77.8118 68.1429 78.3587 67.7535 79.0795C67.3724 79.7921 67.1818 80.6539 67.1818 81.6648ZM93.2951 73.9091V76.892H82.8671V73.9091H93.2951ZM85.6637 69.3352H89.3799V87.3945C89.3799 88.1154 89.4876 88.6581 89.7031 89.0227C89.9185 89.379 90.1961 89.6235 90.5358 89.756C90.8838 89.8803 91.2608 89.9425 91.6669 89.9425C91.9652 89.9425 92.2262 89.9218 92.4499 89.8803C92.6736 89.8389 92.8476 89.8058 92.9719 89.7809L93.6431 92.8509C93.4276 92.9337 93.121 93.0166 92.7233 93.0994C92.3256 93.1906 91.8284 93.2403 91.2318 93.2486C90.2541 93.2652 89.3426 93.0911 88.4975 92.7266C87.6523 92.362 86.9687 91.7985 86.4467 91.0362C85.9247 90.2739 85.6637 89.3169 85.6637 88.1651V69.3352Z" fill="#5D3EDE"/>
<path d="M97.7042 93V67.5455H106.777C108.758 67.5455 110.398 67.9059 111.699 68.6268C113 69.3477 113.974 70.3337 114.62 71.5849C115.266 72.8278 115.59 74.2281 115.59 75.7859C115.59 77.3519 115.262 78.7605 114.608 80.0117C113.961 81.2546 112.984 82.2406 111.674 82.9698C110.374 83.6907 108.737 84.0511 106.765 84.0511H100.526V80.7947H106.417C107.668 80.7947 108.683 80.5793 109.462 80.1484C110.241 79.7093 110.813 79.1127 111.177 78.3587C111.542 77.6046 111.724 76.747 111.724 75.7859C111.724 74.8247 111.542 73.9712 111.177 73.2255C110.813 72.4798 110.237 71.8956 109.45 71.473C108.671 71.0504 107.643 70.8391 106.367 70.8391H101.545V93H97.7042ZM119.794 93V73.9091H123.51V93H119.794ZM121.67 70.9634C121.024 70.9634 120.469 70.748 120.005 70.3171C119.549 69.878 119.321 69.3559 119.321 68.7511C119.321 68.1379 119.549 67.6159 120.005 67.185C120.469 66.7459 121.024 66.5263 121.67 66.5263C122.317 66.5263 122.868 66.7459 123.323 67.185C123.787 67.6159 124.019 68.1379 124.019 68.7511C124.019 69.3559 123.787 69.878 123.323 70.3171C122.868 70.748 122.317 70.9634 121.67 70.9634ZM132.226 67.5455V93H128.509V67.5455H132.226ZM145.267 93.3853C143.477 93.3853 141.915 92.9751 140.581 92.1548C139.247 91.3345 138.211 90.1869 137.474 88.712C136.736 87.2371 136.368 85.5136 136.368 83.5415C136.368 81.5612 136.736 79.8294 137.474 78.3462C138.211 76.863 139.247 75.7113 140.581 74.891C141.915 74.0707 143.477 73.6605 145.267 73.6605C147.057 73.6605 148.619 74.0707 149.953 74.891C151.287 75.7113 152.322 76.863 153.06 78.3462C153.797 79.8294 154.166 81.5612 154.166 83.5415C154.166 85.5136 153.797 87.2371 153.06 88.712C152.322 90.1869 151.287 91.3345 149.953 92.1548C148.619 92.9751 147.057 93.3853 145.267 93.3853ZM145.279 90.2656C146.439 90.2656 147.4 89.959 148.163 89.3459C148.925 88.7327 149.489 87.9165 149.853 86.8974C150.226 85.8782 150.412 84.7554 150.412 83.5291C150.412 82.3111 150.226 81.1925 149.853 80.1733C149.489 79.1458 148.925 78.3214 148.163 77.6999C147.4 77.0785 146.439 76.7678 145.279 76.7678C144.111 76.7678 143.141 77.0785 142.371 77.6999C141.609 78.3214 141.041 79.1458 140.668 80.1733C140.304 81.1925 140.121 82.3111 140.121 83.5291C140.121 84.7554 140.304 85.8782 140.668 86.8974C141.041 87.9165 141.609 88.7327 142.371 89.3459C143.141 89.959 144.111 90.2656 145.279 90.2656ZM167.226 73.9091V76.892H156.798V73.9091H167.226ZM159.594 69.3352H163.311V87.3945C163.311 88.1154 163.418 88.6581 163.634 89.0227C163.849 89.379 164.127 89.6235 164.466 89.756C164.814 89.8803 165.192 89.9425 165.598 89.9425C165.896 89.9425 166.157 89.9218 166.381 89.8803C166.604 89.8389 166.778 89.8058 166.903 89.7809L167.574 92.8509C167.358 92.9337 167.052 93.0166 166.654 93.0994C166.256 93.1906 165.759 93.2403 165.163 93.2486C164.185 93.2652 163.273 93.0911 162.428 92.7266C161.583 92.362 160.899 91.7985 160.377 91.0362C159.855 90.2739 159.594 89.3169 159.594 88.1651V69.3352Z" fill="#00ECAA"/>
<path d="M66.0905 51H106.09C108.852 51 111.09 48.7614 111.09 46C111.09 43.2386 108.852 41 106.09 41H71.0905C68.329 41 66.0905 38.7614 66.0905 36C66.0905 33.2386 68.329 31 71.0905 31H106.09C108.852 31 111.09 28.7614 111.09 26C111.09 23.2386 108.852 21 106.09 21H66.0905C60.5676 21 56.0905 25.4772 56.0905 31V41C56.0905 46.5228 60.5676 51 66.0905 51Z" stroke="#5D3EDE"/>
<path d="M56.0904 21V11V11C56.0904 5.47715 60.5676 1 66.0904 1H106.09C108.852 1 111.09 3.23858 111.09 6V6C111.09 8.76142 108.852 11 106.09 11H66.0004C60.492 11 56.0406 15.4918 56.0904 21V21Z" stroke="#00ECAA" stroke-linejoin="round"/>
</svg>
