<svg width="196" height="36" viewBox="0 0 196 36" fill="none" xmlns="http://www.w3.org/2000/svg">
<path d="M25.6001 10.4545L17.0188 35H9.34837L0.767045 10.4545H7.9581L13.0558 28.0167H13.3114L18.3931 10.4545H25.6001ZM39.4789 35.4794C36.954 35.4794 34.7807 34.968 32.959 33.9453C31.1479 32.9119 29.7523 31.4524 28.7722 29.5668C27.7921 27.6705 27.302 25.4279 27.302 22.8391C27.302 20.3143 27.7921 18.0984 28.7722 16.1914C29.7523 14.2844 31.1319 12.7983 32.911 11.733C34.7008 10.6676 36.7995 10.1349 39.2072 10.1349C40.8265 10.1349 42.334 10.396 43.7296 10.918C45.1358 11.4293 46.361 12.2017 47.405 13.2351C48.4597 14.2685 49.28 15.5682 49.8659 17.1342C50.4519 18.6896 50.7449 20.5114 50.7449 22.5994V24.4691H30.0186V20.2504H44.3368C44.3368 19.2702 44.1238 18.402 43.6976 17.6456C43.2715 16.8892 42.6802 16.2979 41.9238 15.8718C41.1781 15.435 40.3098 15.2166 39.3191 15.2166C38.2857 15.2166 37.3695 15.4563 36.5705 15.9357C35.7821 16.4045 35.1642 17.0384 34.7168 17.8374C34.2694 18.6257 34.0403 19.5046 34.0297 20.4741V24.4851C34.0297 25.6996 34.2534 26.7489 34.7008 27.6332C35.1589 28.5174 35.8034 29.1992 36.6344 29.6786C37.4654 30.158 38.4508 30.3977 39.5907 30.3977C40.3471 30.3977 41.0396 30.2912 41.6681 30.0781C42.2967 29.8651 42.8347 29.5455 43.2821 29.1193C43.7296 28.6932 44.0705 28.1712 44.3049 27.5533L50.601 27.9688C50.2814 29.4815 49.6262 30.8026 48.6355 31.9318C47.6554 33.0504 46.3876 33.924 44.8322 34.5526C43.2875 35.1705 41.503 35.4794 39.4789 35.4794ZM61.9949 20.8097V35H55.1873V10.4545H61.6752V14.7852H61.9629C62.5062 13.3576 63.4171 12.2283 64.6955 11.3974C65.9739 10.5558 67.524 10.1349 69.3457 10.1349C71.0502 10.1349 72.5364 10.5078 73.8042 11.2536C75.0719 11.9993 76.0574 13.0646 76.7605 14.4496C77.4636 15.8239 77.8152 17.4645 77.8152 19.3714V35H71.0076V20.5859C71.0183 19.0838 70.6348 17.9119 69.8571 17.0703C69.0794 16.218 68.0087 15.7919 66.6451 15.7919C65.7289 15.7919 64.9192 15.989 64.2161 16.3832C63.5236 16.7773 62.9803 17.3526 62.5861 18.109C62.2026 18.8548 62.0055 19.755 61.9949 20.8097ZM96.2362 10.4545V15.5682H81.4546V10.4545H96.2362ZM84.8105 4.57386H91.618V27.4574C91.618 28.0859 91.7139 28.576 91.9056 28.9276C92.0974 29.2685 92.3637 29.5082 92.7046 29.6467C93.0562 29.7852 93.461 29.8544 93.9191 29.8544C94.2387 29.8544 94.5583 29.8278 94.8779 29.7745C95.1975 29.7106 95.4426 29.6626 95.613 29.6307L96.6837 34.6964C96.3428 34.8029 95.8634 34.9254 95.2455 35.0639C94.6276 35.2131 93.8765 35.3036 92.9923 35.3356C91.3517 35.3995 89.9134 35.1811 88.6776 34.6804C87.4525 34.1797 86.499 33.402 85.8172 32.3473C85.1354 31.2926 84.7998 29.9609 84.8105 28.3523V4.57386Z" fill="#5D3EDE"/>
<path d="M100.799 35V2.27273H113.71C116.193 2.27273 118.307 2.7468 120.055 3.69496C121.802 4.63246 123.133 5.9375 124.05 7.61008C124.976 9.27202 125.44 11.1896 125.44 13.3629C125.44 15.5362 124.971 17.4538 124.034 19.1158C123.096 20.7777 121.738 22.0721 119.959 22.9989C118.19 23.9258 116.049 24.3892 113.535 24.3892H105.305V18.8441H112.416C113.748 18.8441 114.845 18.6151 115.708 18.157C116.582 17.6882 117.231 17.0437 117.658 16.2234C118.094 15.3924 118.313 14.4389 118.313 13.3629C118.313 12.2763 118.094 11.3281 117.658 10.5185C117.231 9.69815 116.582 9.06427 115.708 8.61683C114.834 8.15874 113.726 7.92969 112.384 7.92969H107.718V35H100.799ZM129.806 35V10.4545H136.614V35H129.806ZM133.226 7.29048C132.214 7.29048 131.346 6.9549 130.621 6.28373C129.908 5.60192 129.551 4.78693 129.551 3.83878C129.551 2.90128 129.908 2.09695 130.621 1.42578C131.346 0.743962 132.214 0.403052 133.226 0.403052C134.238 0.403052 135.101 0.743962 135.815 1.42578C136.539 2.09695 136.902 2.90128 136.902 3.83878C136.902 4.78693 136.539 5.60192 135.815 6.28373C135.101 6.9549 134.238 7.29048 133.226 7.29048ZM148.875 2.27273V35H142.067V2.27273H148.875ZM165.418 35.4794C162.936 35.4794 160.789 34.9521 158.978 33.8974C157.178 32.832 155.787 31.3512 154.807 29.4549C153.827 27.5479 153.337 25.3374 153.337 22.8232C153.337 20.2876 153.827 18.0717 154.807 16.1754C155.787 14.2685 157.178 12.7876 158.978 11.733C160.789 10.6676 162.936 10.1349 165.418 10.1349C167.9 10.1349 170.042 10.6676 171.842 11.733C173.653 12.7876 175.049 14.2685 176.029 16.1754C177.009 18.0717 177.499 20.2876 177.499 22.8232C177.499 25.3374 177.009 27.5479 176.029 29.4549C175.049 31.3512 173.653 32.832 171.842 33.8974C170.042 34.9521 167.9 35.4794 165.418 35.4794ZM165.45 30.206C166.579 30.206 167.522 29.8864 168.279 29.2472C169.035 28.5973 169.605 27.7131 169.988 26.5945C170.383 25.4759 170.58 24.2028 170.58 22.7752C170.58 21.3477 170.383 20.0746 169.988 18.956C169.605 17.8374 169.035 16.9531 168.279 16.3033C167.522 15.6534 166.579 15.3285 165.45 15.3285C164.31 15.3285 163.351 15.6534 162.574 16.3033C161.807 16.9531 161.226 17.8374 160.832 18.956C160.448 20.0746 160.257 21.3477 160.257 22.7752C160.257 24.2028 160.448 25.4759 160.832 26.5945C161.226 27.7131 161.807 28.5973 162.574 29.2472C163.351 29.8864 164.31 30.206 165.45 30.206ZM194.981 10.4545V15.5682H180.2V10.4545H194.981ZM183.556 4.57386H190.363V27.4574C190.363 28.0859 190.459 28.576 190.651 28.9276C190.843 29.2685 191.109 29.5082 191.45 29.6467C191.801 29.7852 192.206 29.8544 192.664 29.8544C192.984 29.8544 193.303 29.8278 193.623 29.7745C193.943 29.7106 194.188 29.6626 194.358 29.6307L195.429 34.6964C195.088 34.8029 194.608 34.9254 193.991 35.0639C193.373 35.2131 192.622 35.3036 191.737 35.3356C190.097 35.3995 188.659 35.1811 187.423 34.6804C186.198 34.1797 185.244 33.402 184.562 32.3473C183.881 31.2926 183.545 29.9609 183.556 28.3523V4.57386Z" fill="#00ECAA"/>
</svg>
